<?xml version="1.0" standalone="no"?>
<!DOCTYPE svg PUBLIC "-//W3C//DTD SVG 20010904//EN"
 "http://www.w3.org/TR/2001/REC-SVG-20010904/DTD/svg10.dtd">
<svg version="1.0" xmlns="http://www.w3.org/2000/svg"
 width="16.000000pt" height="16.000000pt" viewBox="0 0 16.000000 16.000000"
 preserveAspectRatio="xMidYMid meet">

<g transform="translate(0.000000,16.000000) scale(0.100000,-0.100000)"
fill="#000000" stroke="none">
<path d="M0 124 c0 -23 4 -33 11 -28 6 3 15 0 20 -7 7 -11 9 -11 9 2 0 9 9 27
19 40 l20 24 26 -27 c14 -16 30 -28 35 -28 5 0 7 -7 4 -15 -4 -8 -1 -15 5 -15
6 0 11 19 11 45 l0 45 -80 0 -80 0 0 -36z"/>
<path d="M110 79 c0 -5 5 -7 10 -4 6 3 10 8 10 11 0 2 -4 4 -10 4 -5 0 -10 -5
-10 -11z"/>
<path d="M57 73 c-15 -14 -5 -23 26 -22 17 1 24 3 15 6 -10 2 -18 9 -18 14 0
10 -14 12 -23 2z"/>
<path d="M7 64 c-4 -4 -7 -20 -7 -36 l0 -28 80 0 80 0 0 30 c0 24 -4 30 -21
30 -17 0 -20 -5 -17 -25 5 -24 3 -25 -41 -25 -44 0 -47 2 -46 27 0 26 -15 40
-28 27z"/>
</g>
</svg>
